<svg width="52" height="49" viewBox="0 0 52 49" fill="none" xmlns="http://www.w3.org/2000/svg">
<rect x="9.62988" y="17.1069" width="30.9634" height="31.8526" fill="white"/>
<path d="M12.0927 34.5217C12.0401 35.1897 12.4712 35.7966 13.1063 35.9456L13.3452 36.0015C13.3285 32.8404 13.5265 25.0365 15.6798 19.3598C13.1322 24.3202 12.32 31.6894 12.0927 34.5217Z" fill="#0EB650"/>
<path d="M22.6157 29.5613C22.6157 29.8058 22.8129 30.0038 23.0527 29.9969C23.2842 29.9891 23.463 29.7808 23.463 29.5432V24.8962C23.1772 24.6861 22.8948 24.4752 22.6157 24.2626V29.5613Z" fill="#0EB650"/>
<path d="M24.3264 29.5613C24.3264 29.8058 24.5228 30.0046 24.7626 29.9969C24.994 29.9891 25.1728 29.7808 25.1728 29.5432V26.098C24.8879 25.9051 24.6055 25.7106 24.3264 25.5143V29.5613Z" fill="#0EB650"/>
<path d="M26.0361 29.5613C26.0361 29.8058 26.2333 30.0038 26.4723 29.9969C26.7046 29.9892 26.8826 29.7817 26.8826 29.5432V27.2128C26.5976 27.0346 26.316 26.8539 26.0361 26.6713V29.5613Z" fill="#0EB650"/>
<mask id="mask0_63_70" style="mask-type:luminance" maskUnits="userSpaceOnUse" x="36" y="32" width="11" height="17">
<path d="M36.8396 32.8128H46.4653V49H36.8396V32.8128Z" fill="white"/>
</mask>
<g mask="url(#mask0_63_70)">
<path d="M36.9375 34.0362L37.4271 48.9914H41.5548V37.2447C43.3538 36.834 45.0099 36.0713 46.437 35.0374C43.8919 34.5544 41.2607 33.8408 38.5986 32.8929C38.1131 33.4293 37.55 33.8253 36.9375 34.0362Z" fill="#0EB650"/>
</g>
<path d="M51.6323 25.0744C51.6323 19.3633 47.6124 14.5501 42.1186 13.0453C39.6487 5.94472 33.0578 0.8638 25.3121 0.8638C18.9451 0.8638 13.3611 4.29872 10.2026 9.46487C11.451 12.3936 13.4321 15.3791 16.0248 18.2493C16.3348 17.8266 16.6615 17.4358 17.0108 17.0906V19.303C18.4271 20.7691 20.0038 22.1982 21.7234 23.5661L21.8295 21.5973C21.8429 21.3838 22.015 21.2176 22.2222 21.2176C22.4403 21.2176 22.6158 21.3993 22.6158 21.6231V24.2626C22.8948 24.4752 23.1772 24.6861 23.463 24.8962V21.6231C23.463 21.3993 23.6385 21.2176 23.8557 21.2176H23.9326C24.1498 21.2176 24.3261 21.3993 24.3261 21.6231V25.5143C24.6052 25.7106 24.8876 25.9051 25.1726 26.098V21.6231C25.1726 21.3993 25.3489 21.2176 25.567 21.2176H25.6422C25.8594 21.2176 26.0357 21.3993 26.0357 21.6231V26.6713C26.3156 26.8538 26.5972 27.0346 26.8821 27.2128V21.6231C26.8821 21.3993 27.0584 21.2176 27.2765 21.2176C27.4837 21.2176 27.6559 21.3838 27.6692 21.5973L28.0101 27.8998C29.2033 28.6109 30.4391 29.2918 31.7159 29.9358C31.5421 29.241 31.4468 28.4912 31.4468 27.7087C31.4468 24.1179 33.443 21.2064 35.907 21.2064C38.3703 21.2064 40.3673 24.1179 40.3673 27.7087C40.3673 29.8256 39.6738 31.7057 38.5984 32.8929C41.2605 33.8407 43.8917 34.5544 46.4368 35.0374C49.5944 32.7517 51.6323 29.1403 51.6323 25.0744Z" fill="#0BDA51"/>
<path d="M37.5083 23.3121V32.0501C37.5083 32.0501 40.4486 27.3023 37.5083 23.3121Z" fill="#0EB650"/>
<mask id="mask1_63_70" style="mask-type:luminance" maskUnits="userSpaceOnUse" x="25" y="27" width="7" height="22">
<path d="M25.7166 27.744H31.9198V49H25.7166V27.744Z" fill="white"/>
</mask>
<g mask="url(#mask1_63_70)">
<path d="M28.0101 27.8998L28.2842 32.9712C28.3001 33.2235 28.1054 33.437 27.8597 33.437C26.7117 33.437 25.7926 34.4167 25.831 35.5969L26.2688 48.9914H29.1407L31.7159 29.9358C30.4391 29.2918 29.2033 28.6109 28.0101 27.8998Z" fill="#0EB650"/>
</g>
<mask id="mask2_63_70" style="mask-type:luminance" maskUnits="userSpaceOnUse" x="29" y="29" width="6" height="20">
<path d="M29.1392 29.7275H34.9146V49H29.1392V29.7275Z" fill="white"/>
</mask>
<g mask="url(#mask2_63_70)">
<path d="M34.8775 34.0362C33.4119 33.53 32.2263 31.9701 31.7166 29.9358L29.1414 48.9914H34.3887L34.8775 34.0362Z" fill="#0A8F3C"/>
</g>
<mask id="mask3_63_70" style="mask-type:luminance" maskUnits="userSpaceOnUse" x="16" y="19" width="6" height="30">
<path d="M16.9465 19.1489H21.8663V49H16.9465V19.1489Z" fill="white"/>
</mask>
<g mask="url(#mask3_63_70)">
<path d="M17.011 19.303V48.9914L21.7236 23.5661C20.004 22.1982 18.4273 20.7691 17.011 19.303Z" fill="#0EB650"/>
</g>
<mask id="mask4_63_70" style="mask-type:luminance" maskUnits="userSpaceOnUse" x="16" y="23" width="8" height="26">
<path d="M16.9465 23.5566H23.7915V49H16.9465V23.5566Z" fill="white"/>
</mask>
<g mask="url(#mask4_63_70)">
<path d="M21.6392 33.4372C21.3935 33.4372 21.1988 33.2237 21.2147 32.9714L21.7236 23.5663L17.011 48.9916H20.3507L23.3303 45.9242L23.6679 35.5971C23.7063 34.4168 22.7872 33.4372 21.6392 33.4372Z" fill="#0A8F3C"/>
</g>
<mask id="mask5_63_70" style="mask-type:luminance" maskUnits="userSpaceOnUse" x="20" y="45" width="4" height="4">
<path d="M20.155 45.8156H23.3636V49H20.155V45.8156Z" fill="white"/>
</mask>
<g mask="url(#mask5_63_70)">
<path d="M23.2302 48.9914L23.3304 45.9241L20.3508 48.9914H23.2302Z" fill="#03762A"/>
</g>
<mask id="mask6_63_70" style="mask-type:luminance" maskUnits="userSpaceOnUse" x="0" y="9" width="17" height="24">
<path d="M0 9.45196H16.0913V32.3721H0V9.45196Z" fill="white"/>
</mask>
<g mask="url(#mask6_63_70)">
<path d="M10.2036 9.46488C9.45413 10.6916 8.83999 12.0131 8.38628 13.412C3.48403 15.2328 0.00976562 19.7662 0.00976562 25.0744C0.00976562 27.719 0.873737 30.1699 2.34516 32.1904L15.9598 18.1736C13.3997 15.3266 11.4411 12.3678 10.2036 9.46488Z" fill="#0EB650"/>
</g>
<mask id="mask7_63_70" style="mask-type:luminance" maskUnits="userSpaceOnUse" x="2" y="18" width="15" height="31">
<path d="M2.18726 18.047H16.091V49H2.18726V18.047Z" fill="white"/>
</mask>
<g mask="url(#mask7_63_70)">
<path d="M15.9589 18.1735L2.34424 32.1904C3.96189 34.4115 6.31567 36.1126 9.06968 36.9709V48.9914H14.1282L15.0657 38.5842C15.1258 37.911 14.693 37.2963 14.053 37.1457L12.2916 36.7316C11.6574 36.5835 11.2254 35.9766 11.2789 35.3085C11.5363 32.0845 12.5548 22.9859 16.0249 18.2493C16.0032 18.2243 15.9806 18.1985 15.9589 18.1735Z" fill="#0A8F3C"/>
</g>
</svg>
